<?xml version="1.0" standalone="no"?><!DOCTYPE svg PUBLIC "-//W3C//DTD SVG 1.1//EN" "http://www.w3.org/Graphics/SVG/1.1/DTD/svg11.dtd"><svg t="1735133214327" class="icon" viewBox="0 0 1024 1024" version="1.1" xmlns="http://www.w3.org/2000/svg" p-id="19951" xmlns:xlink="http://www.w3.org/1999/xlink" width="200" height="200"><path d="M933.8 365.9l-394-277c-21-14.8-49-14.5-69.7 0.5L89 365.8c-15.6 11.3-24.8 29.3-24.8 48.6v484.9c0 33.1 26.9 60 60 60h775.1c33.1 0 60-26.9 60-60V415c0-19.6-9.5-37.9-25.5-49.1zM796.5 599.3c0 11-9 20-20 20s-20-9-20-20v-90.9L573.9 691c-5.9 5.9-14.5 7.3-21.7 4.4-2.4-1-4.7-2.4-6.6-4.4L403.7 549.1 261.8 691c-3.9 3.9-9 5.9-14.1 5.9s-10.2-1.9-14.1-5.9c-7.8-7.8-7.8-20.5 0-28.3l156-156c3.8-3.8 8.8-5.8 14.1-5.8 5.3 0 10.4 2.1 14.2 5.8l141.9 141.9 169.8-169.8h-93.7c-11 0-20-8.9-20-20 0-11 9-20 20-20h140.5c11 0 20 9 20 20v140.5z" fill="#2c2c2c" p-id="19952"></path></svg>